<svg version="1.1" id="Layer_1" xmlns="http://www.w3.org/2000/svg" xmlns:xlink="http://www.w3.org/1999/xlink" x="0px" y="0px"
	 width="100%" viewBox="0 0 496 208" enable-background="new 0 0 496 208" xml:space="preserve">
<path fill="#000000" opacity="1.000000" stroke="none" 
	d="
M335.746338,139.789307 
	C326.027435,140.720688 316.833557,142.410400 307.481964,142.430130 
	C304.381409,142.436661 302.797607,143.924118 303.273712,147.133514 
	C303.683655,149.896942 304.091522,152.863022 300.387787,153.413818 
	C296.581787,153.979828 296.084808,150.889328 296.001373,148.179291 
	C295.894012,144.693832 293.905273,144.298080 291.060211,144.172012 
	C281.217224,143.735931 271.445129,145.086761 261.626709,145.130157 
	C261.126831,145.132355 260.626984,145.139008 260.127106,145.144852 
	C257.566071,145.174805 254.712967,145.331299 254.553055,141.788788 
	C254.370773,137.751083 257.623566,138.102783 260.232574,138.023056 
	C266.891449,137.819550 273.559082,137.846664 280.212860,137.549759 
	C284.840698,137.343246 289.451385,136.752777 293.738434,136.363876 
	C295.027985,135.039383 294.449280,133.824875 294.465668,132.708511 
	C294.677917,118.266220 294.706024,121.946304 282.214233,122.838768 
	C274.693298,123.376091 267.216370,126.825516 259.895142,127.441353 
	C252.720963,128.044830 247.474808,130.981232 241.832199,134.188019 
	C241.143143,134.579620 240.564911,135.166214 239.934204,135.663315 
	C240.705338,138.026031 242.603821,138.733658 244.387756,139.589020 
	C246.907394,140.797134 247.984863,142.685791 246.386810,145.211777 
	C244.798553,147.722351 242.421448,148.262985 239.964188,146.502762 
	C237.679001,144.865799 235.608932,142.928513 233.309921,141.011490 
	C229.318756,142.555618 225.308640,144.107101 221.298508,145.658524 
	C219.122818,146.500259 216.537888,147.846619 215.092636,145.148102 
	C213.609283,142.378464 215.720093,140.494064 218.028931,139.148239 
	C227.371338,133.702576 236.758896,128.333649 246.069717,122.834671 
	C278.717712,103.552704 311.688660,84.792175 342.382050,62.379028 
	C347.100006,58.933838 351.812683,55.620308 355.927551,50.699718 
	C352.140930,48.590851 348.333984,49.334812 344.691406,49.592846 
	C334.085724,50.344135 323.494873,51.968334 312.895721,51.988991 
	C297.878662,52.018261 283.121033,54.443768 268.232880,55.572643 
	C263.378265,55.940735 259.492218,59.723557 254.938156,61.065796 
	C242.677063,64.679573 236.903015,73.612221 232.693008,84.854439 
	C227.337585,99.155312 221.134659,113.146355 215.059113,127.167847 
	C209.183899,140.726959 203.515884,154.361588 198.686584,168.328415 
	C197.708572,171.156876 196.406265,173.618683 193.139755,172.465439 
	C189.702560,171.251938 190.609039,168.168701 191.574249,165.655167 
	C197.168930,151.085800 202.123337,136.288345 208.848236,122.132065 
	C215.109604,108.951591 220.387299,95.303253 226.069260,81.848724 
	C226.965424,79.726631 227.709320,77.540230 228.635269,75.087883 
	C226.159012,74.526901 224.344116,75.439079 222.656708,76.256516 
	C210.377792,82.204933 197.415833,86.479736 184.848175,91.718422 
	C182.760498,92.588638 181.068649,93.682358 179.590744,95.291519 
	C164.620056,111.591881 148.604370,126.855667 132.473083,141.969666 
	C118.050774,155.482483 103.089676,168.425186 88.198608,181.427383 
	C85.991440,183.354584 83.182388,187.408493 79.812256,183.724106 
	C76.741577,180.367081 80.344254,177.799622 82.357422,175.248840 
	C87.904190,168.220810 96.486641,165.154282 102.910469,159.088150 
	C123.426613,139.714355 144.516693,120.947838 164.216995,100.243179 
	C162.002518,98.461967 160.172485,99.858101 158.499451,100.411201 
	C150.125839,103.179504 141.649872,105.521088 132.948059,106.991821 
	C131.483124,107.239426 129.980270,107.461342 128.505890,107.405602 
	C126.536842,107.331161 124.800385,106.443741 124.479340,104.344803 
	C124.180138,102.388680 125.724648,101.211121 127.319427,100.714394 
	C130.484161,99.728676 133.710831,98.827766 136.978027,98.304939 
	C150.707138,96.107941 163.416687,90.531174 176.609467,86.563286 
	C179.234924,85.773643 180.490875,83.439728 182.122147,81.653160 
	C190.755051,72.198540 199.401031,62.728912 205.802032,51.516071 
	C206.941177,49.520584 208.194000,47.522488 207.806610,44.439163 
	C201.115128,43.522556 195.550690,46.891220 190.065277,49.552151 
	C163.593323,62.393475 137.260193,75.521111 110.886368,88.564453 
	C107.606438,90.186562 104.396790,91.950714 101.118050,93.575317 
	C98.809708,94.719078 96.352615,94.974457 95.078636,92.309952 
	C93.781578,89.597198 95.612320,88.129349 97.972672,86.953415 
	C116.865456,77.541084 135.717041,68.046120 154.592560,58.599072 
	C164.847000,53.466808 174.944534,47.965279 185.452774,43.415401 
	C192.500153,40.364010 199.318848,36.026447 207.588257,36.594563 
	C213.565735,37.005222 217.096100,41.259518 215.681549,47.062977 
	C213.785934,54.840042 208.982712,61.090027 204.323624,67.355049 
	C201.751617,70.813576 198.935577,74.090637 196.508759,77.972145 
	C208.300110,74.959091 219.011063,69.400658 230.001480,64.653091 
	C228.017273,57.602417 229.084824,57.588421 235.051361,54.191063 
	C241.061874,50.768669 247.256042,52.003670 253.284836,50.877182 
	C260.507812,49.527554 266.921387,47.001385 272.731598,42.493824 
	C277.923370,38.466061 280.583496,39.774845 281.355225,46.627251 
	C288.760468,46.003048 296.168793,45.180279 303.599823,44.791988 
	C321.011993,43.882153 338.384521,41.910637 355.863159,42.646851 
	C359.425293,42.796894 363.006012,43.194771 364.620911,47.053196 
	C366.283783,51.026192 363.652344,53.847557 361.318665,56.340004 
	C353.061462,65.159027 342.819885,71.485008 332.952332,78.247551 
	C313.356140,91.677422 293.064331,104.009926 272.629730,116.361137 
	C281.097015,114.956932 289.590607,114.345306 298.078033,113.663551 
	C308.679871,112.811958 319.267090,111.715103 329.882721,111.114944 
	C342.380096,110.408401 354.897614,109.921097 367.412781,109.701500 
	C383.206238,109.424377 399.007050,107.630630 414.802673,109.651886 
	C420.382355,110.365883 426.004120,110.883202 431.513763,111.963860 
	C434.983185,112.644348 438.304810,114.330574 439.088409,118.344055 
	C439.893829,122.469238 438.227173,125.588432 434.979279,128.342209 
	C423.271332,138.268997 409.573883,143.442627 394.648987,145.878036 
	C394.484589,145.904877 394.317993,145.947495 394.153839,145.941803 
	C390.955536,145.830780 386.493042,147.068954 386.048401,142.476120 
	C385.581451,137.652618 390.035400,138.449600 393.285828,137.978424 
	C407.225708,135.957840 419.748169,130.477737 430.946838,121.964569 
	C431.395844,121.623245 431.564606,120.913307 432.057159,120.027672 
	C424.287964,117.478462 416.530243,116.741699 408.822754,116.411430 
	C387.337952,115.490807 365.911987,117.462700 344.466064,118.336609 
	C337.048004,118.638893 334.198639,121.900574 331.197357,132.690964 
	C338.088806,132.066666 344.765778,131.463516 351.442200,130.854248 
	C352.105377,130.793716 352.763031,130.662964 353.426819,130.621033 
	C355.999207,130.458572 358.906189,130.267700 359.111786,133.754959 
	C359.297180,136.899658 356.667419,137.569214 354.070312,138.191864 
	C348.172668,139.605789 342.085876,138.484039 335.746338,139.789307 
M302.172302,127.583008 
	C302.190125,136.589615 302.190125,136.589615 313.565063,133.754349 
	C312.302094,130.678650 311.201904,127.599571 309.782471,124.675453 
	C308.740326,122.528572 307.153076,120.613899 304.340881,121.295013 
	C301.278412,122.036736 302.532898,124.733536 302.172302,127.583008 
M327.534454,119.714096 
	C323.966888,118.878853 320.447693,118.475113 316.989624,120.744606 
	C318.014221,124.210869 318.479797,127.712776 321.975586,129.939056 
	C324.819611,127.233276 326.678864,124.018394 327.534454,119.714096 
z"/>
</svg>